HIERARCHY
ROOT Hips
{
	OFFSET 0.0000 0.0000 0.0000
	CHANNELS 6 Xposition Yposition Zposition Zrotation Xrotation Yrotation
	JOINT Ab
	{
		OFFSET -0.0000 8.1305 -0.0000
		CHANNELS 3 Zrotation Xrotation Yrotation
		JOINT Chest
		{
			OFFSET -0.0000 26.2902 -0.0000
			CHANNELS 3 Zrotation Xrotation Yrotation
			JOINT Neck
			{
				OFFSET -0.0000 26.2902 0.0000
				CHANNELS 3 Zrotation Xrotation Yrotation
				JOINT Head
				{
					OFFSET -0.0000 10.8167 0.0000
					CHANNELS 3 Zrotation Xrotation Yrotation
					End Site
					{
						OFFSET -0.0000 16.7167 0.0000
					}
				}
			}
			JOINT LeftCollar
			{
				OFFSET -0.0000 26.2902 0.0000
				CHANNELS 3 Zrotation Xrotation Yrotation
				JOINT LeftShoulder
				{
					OFFSET 19.6667 -0.0000 0.0000
					CHANNELS 3 Zrotation Xrotation Yrotation
					JOINT LeftElbow
					{
						OFFSET 27.2190 0.0000 0.0000
						CHANNELS 3 Zrotation Xrotation Yrotation
						JOINT LeftWrist
						{
							OFFSET 30.7431 0.0000 0.0000
							CHANNELS 3 Zrotation Xrotation Yrotation
							End Site
							{
								OFFSET 0.0000 -14.7500 0.0000
							}
						}
					}
				}
			}
			JOINT RightCollar
			{
				OFFSET -0.0000 26.2902 0.0000
				CHANNELS 3 Zrotation Xrotation Yrotation
				JOINT RightShoulder
				{
					OFFSET -19.6667 0.0000 0.0000
					CHANNELS 3 Zrotation Xrotation Yrotation
					JOINT RightElbow
					{
						OFFSET -27.2190 0.0000 0.0000
						CHANNELS 3 Zrotation Xrotation Yrotation
						JOINT RightWrist
						{
							OFFSET -30.7431 0.0000 0.0000
							CHANNELS 3 Zrotation Xrotation Yrotation
							End Site
							{
								OFFSET -0.0000 -14.7500 0.0000
							}
						}
					}
				}
			}
		}
	}
	JOINT LeftHip
	{
		OFFSET 11.8000 0.0000 0.0000
		CHANNELS 3 Zrotation Xrotation Yrotation
		JOINT LeftKnee
		{
			OFFSET -0.0000 -39.7832 0.0000
			CHANNELS 3 Zrotation Xrotation Yrotation
			JOINT LeftAnkle
			{
				OFFSET -0.0000 -41.7317 0.0000
				CHANNELS 3 Zrotation Xrotation Yrotation
				End Site
				{
					OFFSET -0.0000 -4.9167 16.7167
				}
			}
		}
	}
	JOINT RightHip
	{
		OFFSET -11.8000 0.0000 0.0000
		CHANNELS 3 Zrotation Xrotation Yrotation
		JOINT RightKnee
		{
			OFFSET -0.0000 -39.7832 0.0000
			CHANNELS 3 Zrotation Xrotation Yrotation
			JOINT RightAnkle
			{
				OFFSET -0.0000 -41.7317 0.0000
				CHANNELS 3 Zrotation Xrotation Yrotation
				End Site
				{
					OFFSET -0.0000 -4.9167 16.7167
				}
			}
		}
	}
}
MOTION
Frames: 10
Frame Time: 0.010000
-19.4336 97.0080 177.8815 358.7184 357.7970 176.9497 358.2083 348.3419 0.3183 2.9304 10.3098 0.2351 356.4512 354.3501 3.5179 2.5707 3.6545 3.6108 339.4604 357.2956 14.8884 320.5956 59.8587 337.8751 8.6900 357.4235 326.8674 88.6301 355.0854 346.2147 28.3206 355.8887 343.8800 45.2189 44.2964 2.5863 339.8691 354.2036 31.7480 269.5662 355.5967 7.7619 356.3896 3.0302 0.8641 357.8123 8.5929 2.3925 354.4215 350.0969 18.2542 359.2982 6.1344 9.9368 6.3620 6.2861 6.9821 349.9617 343.5297 316.1215 
-19.4506 97.0084 177.8835 358.7192 357.7911 176.9120 358.2020 348.3463 0.3217 2.9593 10.3176 0.2345 356.4639 354.2998 3.5441 2.5661 3.7156 3.6364 339.4505 357.2640 14.9087 320.6660 59.9042 337.8070 8.7503 357.3842 326.8832 88.6005 355.0762 346.2546 28.3101 355.9274 343.8745 45.2289 44.2536 2.5802 339.9435 354.2165 31.7676 269.5866 355.5851 7.8341 356.3900 3.0313 0.8361 357.7802 8.5832 2.4285 354.5164 350.0963 18.2617 359.2790 6.1134 9.9493 6.3694 6.2985 7.0058 349.9668 343.5263 316.1278 
-19.4682 97.0100 177.8772 358.7207 357.7905 176.8734 358.1968 348.3380 0.3206 2.9844 10.3395 0.2308 356.4783 354.2650 3.5741 2.5683 3.7674 3.6664 339.4552 357.3007 14.8771 320.5685 59.8572 337.9217 8.6723 357.4115 326.8568 88.5727 355.0593 346.1363 28.2909 355.9124 343.8643 45.2370 44.2755 2.6037 339.8920 354.2177 31.7355 269.5803 355.5244 7.7732 356.3784 3.0478 0.8236 357.7751 8.5603 2.4555 354.4931 350.0899 18.2796 359.2620 6.1175 9.9907 6.3730 6.2860 7.0103 349.9647 343.5340 316.1252 
-19.4832 97.0118 177.8759 358.7254 357.7889 176.8208 358.1998 348.3369 0.3273 3.0002 10.3636 0.2365 356.5453 354.1883 3.6036 2.4855 3.8798 3.6948 339.4546 357.2716 14.8952 320.6389 59.9147 337.8490 8.7637 357.3518 326.8750 88.4248 355.0639 346.1380 28.2820 355.8858 343.8622 45.2375 44.2969 2.5925 339.8784 354.2422 31.7462 269.6077 355.5673 7.6757 356.3604 3.0513 0.8439 357.7860 8.5620 2.4880 354.4788 350.0833 18.2962 359.2573 6.0986 10.0141 6.3634 6.3045 6.9784 349.9774 343.5300 316.1704 
-19.4989 97.0101 177.8719 358.7388 357.7927 176.7817 358.2133 348.3315 0.3346 3.0094 10.4040 0.2403 356.5863 354.1258 3.6220 2.4402 3.9633 3.7124 339.4765 357.2774 14.8893 320.6248 59.9239 337.8470 8.7587 357.3960 326.8704 88.3072 355.0556 346.1037 28.2826 355.9147 343.8544 45.2363 44.2715 2.5878 339.9453 354.2432 31.7724 269.5650 355.5665 7.7223 356.3700 3.0747 0.7911 357.7539 8.5360 2.5201 354.4882 350.0769 18.3437 359.2519 6.1060 10.0685 6.3696 6.2922 6.9865 349.9874 343.5301 316.1561 
-19.5163 97.0112 177.8651 358.7332 357.8033 176.7264 358.1986 348.3374 0.3448 3.0381 10.4196 0.2506 356.6055 354.1050 3.6611 2.4416 4.0121 3.7506 339.4715 357.3051 14.9060 320.6955 59.9347 337.7520 8.6928 357.3980 326.9031 88.4016 355.0532 346.0927 28.2483 355.8890 343.8573 45.2897 44.3456 2.5699 339.8438 354.2210 31.7260 269.5959 355.5166 7.6023 356.3482 3.1110 0.7424 357.7407 8.4962 2.6265 354.5115 350.0819 18.3422 359.2304 6.1136 10.0706 6.3578 6.2915 7.0067 350.0029 343.5274 316.1885 
-19.5368 97.0132 177.8586 358.7353 357.7988 176.6932 358.2188 348.3204 0.3422 3.0264 10.4667 0.2402 356.6891 353.9949 3.6804 2.3338 4.1735 3.7694 339.4840 357.2794 14.9278 320.8106 60.0010 337.6189 8.7987 357.3763 326.9394 88.1831 355.0107 346.0656 28.2697 355.9240 343.8337 45.2350 44.3339 2.6075 339.9627 354.2421 31.7179 269.6013 355.4953 7.7776 356.3350 3.1211 0.6619 357.7199 8.4806 2.6982 354.5459 350.0777 18.3857 359.2050 6.1096 10.1090 6.3774 6.2871 7.0161 349.9832 343.5374 316.1801 
-19.5531 97.0136 177.8568 358.7352 357.7965 176.6451 358.2290 348.3176 0.3398 3.0201 10.4932 0.2446 356.6934 353.9767 3.7149 2.3579 4.2061 3.8024 339.4982 357.3037 14.9292 320.7873 59.9517 337.6422 8.6952 357.3965 326.8902 88.4193 355.0687 346.1143 28.2643 355.8844 343.8355 45.2224 44.3885 2.6359 339.8904 354.2305 31.6848 269.7438 355.4896 7.7453 356.3179 3.1289 0.6273 357.7159 8.4620 2.7907 354.5297 350.0711 18.3754 359.1937 6.0904 10.1561 6.3728 6.3073 7.0033 349.9986 343.5200 316.1848 
-19.5739 97.0124 177.8551 358.7366 357.7913 176.6017 358.2387 348.3289 0.3425 3.0246 10.4913 0.2422 356.7383 353.9376 3.7603 2.3212 4.2881 3.8462 339.5118 357.2783 14.9694 320.8359 59.9907 337.5358 8.7644 357.3987 326.9506 88.2595 355.0692 346.1161 28.2543 355.9229 343.8553 45.2584 44.3254 2.5803 339.9857 354.2562 31.7134 269.6384 355.4846 7.7879 356.3069 3.2414 359.8840 357.5916 8.2098 3.5703 354.6108 350.1713 18.3886 359.1722 6.0746 10.1673 6.3761 6.3176 7.0014 350.0204 343.5101 316.2224 
-19.5954 97.0130 177.8513 358.7270 357.7795 176.5550 358.2436 348.3151 0.3435 3.0154 10.5174 0.2429 356.8012 353.8637 3.7989 2.2568 4.4188 3.8838 339.5342 357.2554 14.9763 320.7803 59.9843 337.5847 8.7456 357.3873 326.9374 88.1774 355.0531 345.9971 28.2411 355.9061 343.8644 45.2882 44.3519 2.5793 339.9109 354.2505 31.6792 269.6445 355.4896 7.7324 356.2818 3.2463 359.7642 357.5624 8.1877 3.6670 354.6461 350.1458 18.4529 359.1361 6.0489 10.2333 6.3935 6.3300 6.9883 350.0507 343.4687 316.2161 
